<mxfile host="app.diagrams.net" agent="Mozilla/5.0 (Windows NT 10.0; Win64; x64; rv:133.0) Gecko/20100101 Firefox/133.0" version="26.0.5">
  <diagram name="Page-1" id="Mw4I-FQrMTWlFru_oyCW">
    <mxGraphModel dx="2074" dy="1114" grid="1" gridSize="10" guides="1" tooltips="1" connect="1" arrows="1" fold="1" page="1" pageScale="1" pageWidth="850" pageHeight="1100" math="0" shadow="0">
      <root>
        <mxCell id="0" />
        <mxCell id="1" parent="0" />
        <mxCell id="83Mtk81ZtaGpH8Vo2Btm-1" value="Init" style="rounded=1;whiteSpace=wrap;html=1;" vertex="1" parent="1">
          <mxGeometry x="365" y="70" width="120" height="60" as="geometry" />
        </mxCell>
        <mxCell id="83Mtk81ZtaGpH8Vo2Btm-2" value="&lt;div&gt;Monitor Level&lt;/div&gt;&lt;div&gt;(Default)&lt;br&gt;&lt;/div&gt;" style="rounded=1;whiteSpace=wrap;html=1;" vertex="1" parent="1">
          <mxGeometry x="365" y="190" width="120" height="60" as="geometry" />
        </mxCell>
        <mxCell id="83Mtk81ZtaGpH8Vo2Btm-3" value="" style="endArrow=classic;html=1;rounded=0;exitX=0.5;exitY=1;exitDx=0;exitDy=0;entryX=0.5;entryY=0;entryDx=0;entryDy=0;" edge="1" parent="1" source="83Mtk81ZtaGpH8Vo2Btm-1" target="83Mtk81ZtaGpH8Vo2Btm-2">
          <mxGeometry width="50" height="50" relative="1" as="geometry">
            <mxPoint x="440" y="170" as="sourcePoint" />
            <mxPoint x="490" y="120" as="targetPoint" />
          </mxGeometry>
        </mxCell>
        <mxCell id="83Mtk81ZtaGpH8Vo2Btm-4" value="" style="endArrow=classic;html=1;rounded=0;exitX=1;exitY=0.5;exitDx=0;exitDy=0;entryX=0;entryY=0.5;entryDx=0;entryDy=0;" edge="1" parent="1" source="83Mtk81ZtaGpH8Vo2Btm-2" target="83Mtk81ZtaGpH8Vo2Btm-5">
          <mxGeometry width="50" height="50" relative="1" as="geometry">
            <mxPoint x="500" y="220" as="sourcePoint" />
            <mxPoint x="560" y="220" as="targetPoint" />
          </mxGeometry>
        </mxCell>
        <mxCell id="83Mtk81ZtaGpH8Vo2Btm-5" value="Check Sensors" style="rounded=1;whiteSpace=wrap;html=1;" vertex="1" parent="1">
          <mxGeometry x="580" y="190" width="120" height="60" as="geometry" />
        </mxCell>
        <mxCell id="83Mtk81ZtaGpH8Vo2Btm-7" value="&lt;div&gt;Raise Water&lt;/div&gt;&lt;div&gt;Level&lt;br&gt;&lt;/div&gt;" style="rounded=1;whiteSpace=wrap;html=1;" vertex="1" parent="1">
          <mxGeometry x="150" y="190" width="120" height="60" as="geometry" />
        </mxCell>
        <mxCell id="83Mtk81ZtaGpH8Vo2Btm-12" value="" style="endArrow=classic;startArrow=classic;html=1;rounded=0;exitX=1;exitY=0.5;exitDx=0;exitDy=0;entryX=0;entryY=0.5;entryDx=0;entryDy=0;" edge="1" parent="1" source="83Mtk81ZtaGpH8Vo2Btm-7" target="83Mtk81ZtaGpH8Vo2Btm-2">
          <mxGeometry width="50" height="50" relative="1" as="geometry">
            <mxPoint x="270" y="220" as="sourcePoint" />
            <mxPoint x="320" y="170" as="targetPoint" />
          </mxGeometry>
        </mxCell>
        <mxCell id="83Mtk81ZtaGpH8Vo2Btm-16" value="Update Pump Controls" style="rounded=1;whiteSpace=wrap;html=1;" vertex="1" parent="1">
          <mxGeometry x="372" y="360" width="120" height="60" as="geometry" />
        </mxCell>
        <mxCell id="83Mtk81ZtaGpH8Vo2Btm-17" value="Activate Pumps" style="rounded=1;whiteSpace=wrap;html=1;" vertex="1" parent="1">
          <mxGeometry x="540" y="330" width="120" height="60" as="geometry" />
        </mxCell>
        <mxCell id="83Mtk81ZtaGpH8Vo2Btm-18" value="" style="endArrow=classic;html=1;rounded=0;exitX=1;exitY=0;exitDx=0;exitDy=0;entryX=0;entryY=0.5;entryDx=0;entryDy=0;" edge="1" parent="1" source="83Mtk81ZtaGpH8Vo2Btm-16" target="83Mtk81ZtaGpH8Vo2Btm-17">
          <mxGeometry width="50" height="50" relative="1" as="geometry">
            <mxPoint x="310" y="350" as="sourcePoint" />
            <mxPoint x="360" y="300" as="targetPoint" />
          </mxGeometry>
        </mxCell>
        <mxCell id="83Mtk81ZtaGpH8Vo2Btm-19" value="" style="endArrow=classic;html=1;rounded=0;exitX=0;exitY=1;exitDx=0;exitDy=0;" edge="1" parent="1" source="83Mtk81ZtaGpH8Vo2Btm-5">
          <mxGeometry width="50" height="50" relative="1" as="geometry">
            <mxPoint x="650" y="340" as="sourcePoint" />
            <mxPoint x="580" y="330" as="targetPoint" />
          </mxGeometry>
        </mxCell>
        <mxCell id="83Mtk81ZtaGpH8Vo2Btm-20" value="Deactivate pumps" style="rounded=1;whiteSpace=wrap;html=1;" vertex="1" parent="1">
          <mxGeometry x="680" y="330" width="120" height="60" as="geometry" />
        </mxCell>
        <mxCell id="83Mtk81ZtaGpH8Vo2Btm-22" value="" style="endArrow=classic;html=1;rounded=0;exitX=1;exitY=1;exitDx=0;exitDy=0;entryX=0.5;entryY=0;entryDx=0;entryDy=0;" edge="1" parent="1" source="83Mtk81ZtaGpH8Vo2Btm-5" target="83Mtk81ZtaGpH8Vo2Btm-20">
          <mxGeometry width="50" height="50" relative="1" as="geometry">
            <mxPoint x="570" y="580" as="sourcePoint" />
            <mxPoint x="620" y="530" as="targetPoint" />
          </mxGeometry>
        </mxCell>
        <mxCell id="83Mtk81ZtaGpH8Vo2Btm-25" value="" style="endArrow=classic;html=1;rounded=0;exitX=0.558;exitY=1.05;exitDx=0;exitDy=0;entryX=0.5;entryY=0;entryDx=0;entryDy=0;exitPerimeter=0;" edge="1" parent="1" source="83Mtk81ZtaGpH8Vo2Btm-2" target="83Mtk81ZtaGpH8Vo2Btm-16">
          <mxGeometry width="50" height="50" relative="1" as="geometry">
            <mxPoint x="440" y="340" as="sourcePoint" />
            <mxPoint x="490" y="290" as="targetPoint" />
          </mxGeometry>
        </mxCell>
        <mxCell id="83Mtk81ZtaGpH8Vo2Btm-27" value="" style="endArrow=classic;startArrow=classic;html=1;rounded=0;entryX=0;entryY=1;entryDx=0;entryDy=0;exitX=1;exitY=0;exitDx=0;exitDy=0;" edge="1" parent="1" source="83Mtk81ZtaGpH8Vo2Btm-28" target="83Mtk81ZtaGpH8Vo2Btm-2">
          <mxGeometry width="50" height="50" relative="1" as="geometry">
            <mxPoint x="280" y="300" as="sourcePoint" />
            <mxPoint x="235" y="300" as="targetPoint" />
          </mxGeometry>
        </mxCell>
        <mxCell id="83Mtk81ZtaGpH8Vo2Btm-28" value="Poll Pumps" style="rounded=1;whiteSpace=wrap;html=1;" vertex="1" parent="1">
          <mxGeometry x="150" y="300" width="120" height="60" as="geometry" />
        </mxCell>
        <mxCell id="83Mtk81ZtaGpH8Vo2Btm-29" value="Lower Water Level" style="rounded=1;whiteSpace=wrap;html=1;" vertex="1" parent="1">
          <mxGeometry x="150" y="430" width="120" height="60" as="geometry" />
        </mxCell>
        <mxCell id="83Mtk81ZtaGpH8Vo2Btm-30" value="" style="endArrow=classic;html=1;rounded=0;exitX=0.5;exitY=1;exitDx=0;exitDy=0;entryX=0.5;entryY=0;entryDx=0;entryDy=0;" edge="1" parent="1" source="83Mtk81ZtaGpH8Vo2Btm-28" target="83Mtk81ZtaGpH8Vo2Btm-29">
          <mxGeometry width="50" height="50" relative="1" as="geometry">
            <mxPoint x="260" y="410" as="sourcePoint" />
            <mxPoint x="310" y="360" as="targetPoint" />
          </mxGeometry>
        </mxCell>
      </root>
    </mxGraphModel>
  </diagram>
</mxfile>
